<svg xmlns="http://www.w3.org/2000/svg" viewBox="0 0 80 60" width="160" height="120">
  <defs>
    <filter id="sh"><feDropShadow dx="1" dy="2" stdDeviation="2" flood-color="#000" flood-opacity="0.2"/></filter>
  </defs>
  <g filter="url(#sh)">
    <!-- Blades of grass -->
    <path d="M20,55 Q15,38 18,22 Q22,10 20,2"  fill="none" stroke="#338822" stroke-width="3" stroke-linecap="round"/>
    <path d="M28,56 Q30,38 26,18 Q24,8 28,0"   fill="none" stroke="#44aa33" stroke-width="3" stroke-linecap="round"/>
    <path d="M36,56 Q38,35 40,16 Q42,6 38,0"   fill="none" stroke="#339922" stroke-width="2.5" stroke-linecap="round"/>
    <path d="M44,56 Q48,38 44,18 Q42,8 46,2"   fill="none" stroke="#44aa33" stroke-width="3" stroke-linecap="round"/>
    <path d="M52,55 Q52,36 56,18 Q58,8 54,2"   fill="none" stroke="#338822" stroke-width="3" stroke-linecap="round"/>
    <path d="M60,56 Q64,40 60,22 Q58,12 62,4"  fill="none" stroke="#44bb33" stroke-width="2.5" stroke-linecap="round"/>
    <path d="M12,56 Q8,42 12,28 Q14,18 10,10"  fill="none" stroke="#226611" stroke-width="2.5" stroke-linecap="round"/>
    <path d="M68,56 Q72,42 68,28 Q66,18 70,10" fill="none" stroke="#226611" stroke-width="2.5" stroke-linecap="round"/>
    <!-- Base -->
    <ellipse cx="40" cy="56" rx="32" ry="5" fill="#226611" opacity="0.4"/>
  </g>
</svg>