<svg xmlns="http://www.w3.org/2000/svg" viewBox="0 0 130 90" width="260" height="180">
  <defs>
    <radialGradient id="bushG" cx="38%" cy="30%" r="65%">
      <stop offset="0%" stop-color="#55cc44"/><stop offset="100%" stop-color="#226611"/>
    </radialGradient>
    <radialGradient id="bushG2" cx="38%" cy="30%" r="65%">
      <stop offset="0%" stop-color="#66dd55"/><stop offset="100%" stop-color="#338822"/>
    </radialGradient>
    <filter id="sh"><feDropShadow dx="2" dy="4" stdDeviation="4" flood-color="#000" flood-opacity="0.3"/></filter>
  </defs>
  <g filter="url(#sh)">
    <!-- Back blobs -->
    <ellipse cx="40"  cy="60" rx="28" ry="22" fill="#1a5511"/>
    <ellipse cx="90"  cy="58" rx="28" ry="22" fill="#1a5511"/>
    <!-- Main blobs -->
    <ellipse cx="25"  cy="62" rx="24" ry="20" fill="url(#bushG)"/>
    <ellipse cx="65"  cy="52" rx="32" ry="26" fill="url(#bushG2)"/>
    <ellipse cx="105" cy="60" rx="24" ry="20" fill="url(#bushG)"/>
    <ellipse cx="46"  cy="66" rx="22" ry="18" fill="#44aa33"/>
    <ellipse cx="86"  cy="64" rx="22" ry="18" fill="#44bb33"/>
    <!-- Berries -->
    <circle cx="30" cy="52" r="3.5" fill="#cc2222"/>
    <circle cx="44" cy="48" r="3"   fill="#dd3333"/>
    <circle cx="80" cy="46" r="3.5" fill="#cc2222"/>
    <circle cx="96" cy="50" r="3"   fill="#dd3333"/>
    <circle cx="60" cy="44" r="2.5" fill="#cc2222"/>
    <!-- Highlights -->
    <path d="M20,48 Q38,40 56,46" fill="none" stroke="#88ee66" stroke-width="3" stroke-linecap="round" opacity="0.4"/>
    <path d="M74,42 Q90,36 108,44" fill="none" stroke="#88ee66" stroke-width="3" stroke-linecap="round" opacity="0.4"/>
    <!-- Ground shadow -->
    <ellipse cx="65" cy="82" rx="55" ry="8" fill="#000" opacity="0.12"/>
  </g>
</svg>