<svg xmlns="http://www.w3.org/2000/svg" viewBox="0 0 150 100" width="300" height="200">
  <defs>
    <radialGradient id="r1" cx="35%" cy="30%" r="65%">
      <stop offset="0%" stop-color="#999988"/><stop offset="100%" stop-color="#444433"/>
    </radialGradient>
    <radialGradient id="r2" cx="35%" cy="30%" r="65%">
      <stop offset="0%" stop-color="#aaaaaa"/><stop offset="100%" stop-color="#555555"/>
    </radialGradient>
    <filter id="sh"><feDropShadow dx="2" dy="4" stdDeviation="4" flood-color="#000" flood-opacity="0.35"/></filter>
  </defs>
  <g filter="url(#sh)">
    <path d="M5,85 Q3,60 15,45 Q28,28 48,28 Q65,28 72,45 Q80,62 75,85 Z" fill="url(#r1)"/>
    <path d="M60,88 Q58,68 68,52 Q80,36 100,34 Q118,34 126,52 Q135,70 130,88 Z" fill="url(#r2)"/>
    <path d="M30,90 Q30,75 38,65 Q48,54 62,56 Q74,58 76,72 Q78,86 62,92 Z" fill="#777766"/>
    <!-- Highlights -->
    <path d="M14,40 Q28,32 42,38" fill="none" stroke="#bbbbaa" stroke-width="4" stroke-linecap="round" opacity="0.35"/>
    <path d="M68,36 Q88,28 108,36" fill="none" stroke="#cccccc" stroke-width="4" stroke-linecap="round" opacity="0.35"/>
    <!-- Moss -->
    <ellipse cx="20" cy="78" rx="10" ry="5" fill="#558844" opacity="0.4"/>
    <ellipse cx="118" cy="80" rx="8" ry="4" fill="#558844" opacity="0.35"/>
  </g>
</svg>