<svg xmlns="http://www.w3.org/2000/svg" viewBox="0 0 100 100" width="200" height="200">
  <defs>
    <filter id="sh"><feDropShadow dx="1" dy="2" stdDeviation="2" flood-color="#000" flood-opacity="0.2"/></filter>
  </defs>
  <g filter="url(#sh)">
    <!-- Main stem -->
    <path d="M50,98 Q48,75 45,55 Q42,38 46,20" fill="none" stroke="#228833" stroke-width="3" stroke-linecap="round"/>
    <!-- Left fronds -->
    <path d="M49,90 Q38,84 28,86" fill="none" stroke="#33aa44" stroke-width="2.5" stroke-linecap="round"/>
    <path d="M48,80 Q36,72 24,74" fill="none" stroke="#33aa44" stroke-width="2.5" stroke-linecap="round"/>
    <path d="M47,70 Q34,60 24,62" fill="none" stroke="#44bb55" stroke-width="2.5" stroke-linecap="round"/>
    <path d="M46,60 Q34,50 26,50" fill="none" stroke="#44bb55" stroke-width="2"   stroke-linecap="round"/>
    <path d="M46,50 Q36,40 30,38" fill="none" stroke="#338833" stroke-width="2"   stroke-linecap="round"/>
    <path d="M46,40 Q38,32 34,28" fill="none" stroke="#338833" stroke-width="1.5" stroke-linecap="round"/>
    <!-- Right fronds -->
    <path d="M50,88 Q62,82 72,84" fill="none" stroke="#33aa44" stroke-width="2.5" stroke-linecap="round"/>
    <path d="M49,78 Q62,70 74,72" fill="none" stroke="#33aa44" stroke-width="2.5" stroke-linecap="round"/>
    <path d="M48,68 Q62,58 74,58" fill="none" stroke="#44bb55" stroke-width="2.5" stroke-linecap="round"/>
    <path d="M47,58 Q60,50 72,48" fill="none" stroke="#44bb55" stroke-width="2"   stroke-linecap="round"/>
    <path d="M46,48 Q58,40 68,38" fill="none" stroke="#338833" stroke-width="2"   stroke-linecap="round"/>
    <path d="M46,38 Q56,32 62,28" fill="none" stroke="#338833" stroke-width="1.5" stroke-linecap="round"/>
    <!-- Frond leaflets (tiny blobs off each frond) -->
    <g fill="#44cc55" opacity="0.6">
      <ellipse cx="38" cy="85" rx="5" ry="3" transform="rotate(-10,38,85)"/>
      <ellipse cx="30" cy="73" rx="5" ry="3" transform="rotate(-15,30,73)"/>
      <ellipse cx="28" cy="61" rx="5" ry="3" transform="rotate(-10,28,61)"/>
      <ellipse cx="62" cy="83" rx="5" ry="3" transform="rotate(10,62,83)"/>
      <ellipse cx="70" cy="71" rx="5" ry="3" transform="rotate(15,70,71)"/>
      <ellipse cx="70" cy="57" rx="5" ry="3" transform="rotate(10,70,57)"/>
    </g>
    <!-- Curled new frond at top -->
    <path d="M46,20 Q50,12 54,16 Q52,22 48,24" fill="none" stroke="#55cc66" stroke-width="2.5" stroke-linecap="round"/>
  </g>
</svg>